<mxfile host="app.diagrams.net" modified="2024-01-02T11:31:25.637Z" agent="Mozilla/5.0 (Macintosh; Intel Mac OS X 10_15_7) AppleWebKit/537.36 (KHTML, like Gecko) Chrome/120.0.0.0 Safari/537.36" etag="eownMqBKpe-61-2QYd8K" version="22.1.16" type="github">
  <diagram name="Page-1" id="DRJGh6UqGENvWFbanNM1">
    <mxGraphModel dx="1026" dy="650" grid="1" gridSize="10" guides="1" tooltips="1" connect="1" arrows="1" fold="1" page="1" pageScale="1" pageWidth="850" pageHeight="1100" math="0" shadow="0">
      <root>
        <mxCell id="0" />
        <mxCell id="1" parent="0" />
        <mxCell id="VfKlvCRYWvXhqlgQfx_J-6" value="" style="rounded=1;arcSize=10;dashed=0;fillColor=none;gradientColor=none;strokeWidth=2;" vertex="1" parent="1">
          <mxGeometry x="180" y="50" width="710" height="470" as="geometry" />
        </mxCell>
        <mxCell id="VfKlvCRYWvXhqlgQfx_J-1" value="" style="sketch=0;points=[[0,0,0],[0.25,0,0],[0.5,0,0],[0.75,0,0],[1,0,0],[0,1,0],[0.25,1,0],[0.5,1,0],[0.75,1,0],[1,1,0],[0,0.25,0],[0,0.5,0],[0,0.75,0],[1,0.25,0],[1,0.5,0],[1,0.75,0]];outlineConnect=0;fontColor=#232F3E;fillColor=#C925D1;strokeColor=#ffffff;dashed=0;verticalLabelPosition=bottom;verticalAlign=top;align=center;html=1;fontSize=12;fontStyle=0;aspect=fixed;shape=mxgraph.aws4.resourceIcon;resIcon=mxgraph.aws4.codecommit;" vertex="1" parent="1">
          <mxGeometry x="230" y="270" width="78" height="78" as="geometry" />
        </mxCell>
        <mxCell id="VfKlvCRYWvXhqlgQfx_J-17" style="edgeStyle=orthogonalEdgeStyle;rounded=0;orthogonalLoop=1;jettySize=auto;html=1;" edge="1" parent="1" source="VfKlvCRYWvXhqlgQfx_J-2" target="VfKlvCRYWvXhqlgQfx_J-4">
          <mxGeometry relative="1" as="geometry" />
        </mxCell>
        <mxCell id="VfKlvCRYWvXhqlgQfx_J-2" value="" style="sketch=0;points=[[0,0,0],[0.25,0,0],[0.5,0,0],[0.75,0,0],[1,0,0],[0,1,0],[0.25,1,0],[0.5,1,0],[0.75,1,0],[1,1,0],[0,0.25,0],[0,0.5,0],[0,0.75,0],[1,0.25,0],[1,0.5,0],[1,0.75,0]];outlineConnect=0;fontColor=#232F3E;fillColor=#C925D1;strokeColor=#ffffff;dashed=0;verticalLabelPosition=bottom;verticalAlign=top;align=center;html=1;fontSize=12;fontStyle=0;aspect=fixed;shape=mxgraph.aws4.resourceIcon;resIcon=mxgraph.aws4.codebuild;" vertex="1" parent="1">
          <mxGeometry x="600" y="270" width="78" height="78" as="geometry" />
        </mxCell>
        <mxCell id="VfKlvCRYWvXhqlgQfx_J-15" style="edgeStyle=orthogonalEdgeStyle;rounded=0;orthogonalLoop=1;jettySize=auto;html=1;" edge="1" parent="1" source="VfKlvCRYWvXhqlgQfx_J-3" target="VfKlvCRYWvXhqlgQfx_J-2">
          <mxGeometry relative="1" as="geometry" />
        </mxCell>
        <mxCell id="VfKlvCRYWvXhqlgQfx_J-3" value="" style="sketch=0;outlineConnect=0;fontColor=#232F3E;gradientColor=none;fillColor=#E7157B;strokeColor=none;dashed=0;verticalLabelPosition=bottom;verticalAlign=top;align=center;html=1;fontSize=12;fontStyle=0;aspect=fixed;pointerEvents=1;shape=mxgraph.aws4.event_event_based;" vertex="1" parent="1">
          <mxGeometry x="420" y="100" width="78" height="78" as="geometry" />
        </mxCell>
        <mxCell id="VfKlvCRYWvXhqlgQfx_J-4" value="Amazon S3" style="sketch=0;outlineConnect=0;fontColor=#232F3E;gradientColor=none;strokeColor=#ffffff;fillColor=#232F3E;dashed=0;verticalLabelPosition=middle;verticalAlign=bottom;align=center;html=1;whiteSpace=wrap;fontSize=10;fontStyle=1;spacing=3;shape=mxgraph.aws4.productIcon;prIcon=mxgraph.aws4.s3;" vertex="1" parent="1">
          <mxGeometry x="790" y="270" width="80" height="100" as="geometry" />
        </mxCell>
        <mxCell id="VfKlvCRYWvXhqlgQfx_J-5" value="" style="sketch=0;outlineConnect=0;fillColor=#d80073;strokeColor=#A50040;dashed=0;verticalLabelPosition=bottom;verticalAlign=top;align=center;html=1;fontSize=12;fontStyle=0;aspect=fixed;pointerEvents=1;shape=mxgraph.aws4.users;fontColor=#ffffff;" vertex="1" parent="1">
          <mxGeometry x="30" y="270" width="78" height="78" as="geometry" />
        </mxCell>
        <mxCell id="VfKlvCRYWvXhqlgQfx_J-8" style="edgeStyle=orthogonalEdgeStyle;rounded=0;orthogonalLoop=1;jettySize=auto;html=1;entryX=0.07;entryY=0.551;entryDx=0;entryDy=0;entryPerimeter=0;" edge="1" parent="1" source="VfKlvCRYWvXhqlgQfx_J-5" target="VfKlvCRYWvXhqlgQfx_J-6">
          <mxGeometry relative="1" as="geometry" />
        </mxCell>
        <mxCell id="VfKlvCRYWvXhqlgQfx_J-14" style="edgeStyle=orthogonalEdgeStyle;rounded=0;orthogonalLoop=1;jettySize=auto;html=1;entryX=-0.003;entryY=0.385;entryDx=0;entryDy=0;entryPerimeter=0;" edge="1" parent="1" source="VfKlvCRYWvXhqlgQfx_J-1" target="VfKlvCRYWvXhqlgQfx_J-3">
          <mxGeometry relative="1" as="geometry" />
        </mxCell>
        <mxCell id="VfKlvCRYWvXhqlgQfx_J-16" style="edgeStyle=orthogonalEdgeStyle;rounded=0;orthogonalLoop=1;jettySize=auto;html=1;exitX=0.5;exitY=1;exitDx=0;exitDy=0;exitPerimeter=0;entryX=0.5;entryY=1;entryDx=0;entryDy=0;entryPerimeter=0;" edge="1" parent="1" source="VfKlvCRYWvXhqlgQfx_J-1" target="VfKlvCRYWvXhqlgQfx_J-2">
          <mxGeometry relative="1" as="geometry">
            <Array as="points">
              <mxPoint x="269" y="410" />
              <mxPoint x="639" y="410" />
            </Array>
          </mxGeometry>
        </mxCell>
        <mxCell id="VfKlvCRYWvXhqlgQfx_J-18" value="&lt;h3&gt;AWS Users&lt;/h3&gt;" style="text;html=1;strokeColor=none;fillColor=none;align=center;verticalAlign=middle;whiteSpace=wrap;rounded=0;" vertex="1" parent="1">
          <mxGeometry x="23.5" y="360" width="91" height="30" as="geometry" />
        </mxCell>
        <mxCell id="VfKlvCRYWvXhqlgQfx_J-19" value="&lt;h3&gt;AWS CodeCommit&lt;/h3&gt;" style="text;html=1;strokeColor=none;fillColor=none;align=center;verticalAlign=middle;whiteSpace=wrap;rounded=0;" vertex="1" parent="1">
          <mxGeometry x="223.5" y="230" width="91" height="30" as="geometry" />
        </mxCell>
        <mxCell id="VfKlvCRYWvXhqlgQfx_J-20" value="&lt;h3&gt;AWS CloudWatch Events&lt;/h3&gt;" style="text;html=1;strokeColor=none;fillColor=none;align=center;verticalAlign=middle;whiteSpace=wrap;rounded=0;" vertex="1" parent="1">
          <mxGeometry x="380" y="70" width="180" height="30" as="geometry" />
        </mxCell>
        <mxCell id="VfKlvCRYWvXhqlgQfx_J-21" value="&lt;h3&gt;AWS CodeBuild&lt;/h3&gt;" style="text;html=1;strokeColor=none;fillColor=none;align=center;verticalAlign=middle;whiteSpace=wrap;rounded=0;" vertex="1" parent="1">
          <mxGeometry x="520" y="290" width="91" height="30" as="geometry" />
        </mxCell>
        <mxCell id="VfKlvCRYWvXhqlgQfx_J-22" value="&lt;h3&gt;git push&lt;/h3&gt;" style="text;html=1;strokeColor=none;fillColor=none;align=center;verticalAlign=middle;whiteSpace=wrap;rounded=0;" vertex="1" parent="1">
          <mxGeometry x="140" y="305" width="91" height="30" as="geometry" />
        </mxCell>
        <mxCell id="VfKlvCRYWvXhqlgQfx_J-23" value="&lt;h3&gt;Send code archive back up to s3 bucket&lt;/h3&gt;" style="text;html=1;strokeColor=none;fillColor=none;align=center;verticalAlign=middle;whiteSpace=wrap;rounded=0;" vertex="1" parent="1">
          <mxGeometry x="684.5" y="340" width="91" height="30" as="geometry" />
        </mxCell>
      </root>
    </mxGraphModel>
  </diagram>
</mxfile>
